HIERARCHY
ROOT Hips
{
  OFFSET -543.289 91.5819 1312.45
  CHANNELS 6 Xposition Yposition Zposition Zrotation Xrotation Yrotation
  JOINT Spine
  {
    OFFSET -1.3176e-05 8 8.18051e-05
    CHANNELS 6 Xposition Yposition Zposition Zrotation Xrotation Yrotation
    JOINT Spine1
    {
      OFFSET -0.000138337 8 -7.6215e-05
      CHANNELS 6 Xposition Yposition Zposition Zrotation Xrotation Yrotation
      JOINT Spine2
      {
        OFFSET -0.00146843 7.99999 -0.00217608
        CHANNELS 6 Xposition Yposition Zposition Zrotation Xrotation Yrotation
        JOINT Spine3
        {
          OFFSET 0 8 0
          CHANNELS 6 Xposition Yposition Zposition Zrotation Xrotation Yrotation
          JOINT Neck
          {
            OFFSET 0.000354708 17 0
            CHANNELS 6 Xposition Yposition Zposition Zrotation Xrotation Yrotation
            JOINT Head
            {
              OFFSET 0.00075385 10.8 0.00221531
              CHANNELS 6 Xposition Yposition Zposition Zrotation Xrotation Yrotation
              End Site
              {
                OFFSET 0 20.25 0
              }
            }
          }
          JOINT LeftShoulder
          {
            OFFSET 5.00049 16.9999 0
            CHANNELS 6 Xposition Yposition Zposition Zrotation Xrotation Yrotation
            JOINT LeftShoulder2
            {
              OFFSET 6.45 0 0
              CHANNELS 6 Xposition Yposition Zposition Zrotation Xrotation Yrotation
              JOINT LeftArm
              {
                OFFSET 6.44993 0 -4.3455e-05
                CHANNELS 6 Xposition Yposition Zposition Zrotation Xrotation Yrotation
                JOINT LeftForeArm
                {
                  OFFSET -0.00302212 -32.4004 -1.99499
                  CHANNELS 6 Xposition Yposition Zposition Zrotation Xrotation Yrotation
                  JOINT LeftHand
                  {
                    OFFSET 0.000131136 -25.6499 1.99993
                    CHANNELS 6 Xposition Yposition Zposition Zrotation Xrotation Yrotation
                    JOINT LeftHandThumb1
                    {
                      OFFSET -0.500197 -1.49831 2.65085
                      CHANNELS 6 Xposition Yposition Zposition Zrotation Xrotation Yrotation
                      JOINT LeftHandThumb2
                      {
                        OFFSET -0.000113981 -3.79987 3.69987
                        CHANNELS 6 Xposition Yposition Zposition Zrotation Xrotation Yrotation
                        JOINT LeftHandThumb3
                        {
                          OFFSET 0.00234426 -3.00067 2.69634
                          CHANNELS 6 Xposition Yposition Zposition Zrotation Xrotation Yrotation
                          End Site
                          {
                            OFFSET -0.00344596 -2.29258 1.8016
                          }
                        }
                      }
                    }
                    JOINT LeftHandIndex
                    {
                      OFFSET 3.28865e-05 -1.89885 1.60012
                      CHANNELS 6 Xposition Yposition Zposition Zrotation Xrotation Yrotation
                      JOINT LeftHandIndex1
                      {
                        OFFSET 6.46486e-05 -8.29911 1.90009
                        CHANNELS 6 Xposition Yposition Zposition Zrotation Xrotation Yrotation
                        JOINT LeftHandIndex2
                        {
                          OFFSET 0.00188172 -4.49469 -0.00683771
                          CHANNELS 6 Xposition Yposition Zposition Zrotation Xrotation Yrotation
                          JOINT LeftHandIndex3
                          {
                            OFFSET 0.00126351 -3.4065 -0.00421667
                            CHANNELS 6 Xposition Yposition Zposition Zrotation Xrotation Yrotation
                            End Site
                            {
                              OFFSET 0.000486657 -2.60017 0.000167307
                            }
                          }
                        }
                      }
                    }
                    JOINT LeftHandMiddle
                    {
                      OFFSET -0.248398 -2.20311 0.391444
                      CHANNELS 6 Xposition Yposition Zposition Zrotation Xrotation Yrotation
                      JOINT LeftHandMiddle1
                      {
                        OFFSET 0.0018128 -8.30988 0.996257
                        CHANNELS 6 Xposition Yposition Zposition Zrotation Xrotation Yrotation
                        JOINT LeftHandMiddle2
                        {
                          OFFSET 0.00388772 -4.64799 -0.00943671
                          CHANNELS 6 Xposition Yposition Zposition Zrotation Xrotation Yrotation
                          JOINT LeftHandMiddle3
                          {
                            OFFSET -0.000636507 -3.29947 -0.00227912
                            CHANNELS 6 Xposition Yposition Zposition Zrotation Xrotation Yrotation
                            End Site
                            {
                              OFFSET 0 -2.7 0.000165591
                            }
                          }
                        }
                      }
                    }
                    JOINT LeftHandRing
                    {
                      OFFSET -0.500032 -2.15089 -0.800175
                      CHANNELS 6 Xposition Yposition Zposition Zrotation Xrotation Yrotation
                      JOINT LeftHandRing1
                      {
                        OFFSET 0.00117827 -7.74915 -0.201931
                        CHANNELS 6 Xposition Yposition Zposition Zrotation Xrotation Yrotation
                        JOINT LeftHandRing2
                        {
                          OFFSET -0.000533428 -3.7982 0.000329275
                          CHANNELS 6 Xposition Yposition Zposition Zrotation Xrotation Yrotation
                          JOINT LeftHandRing3
                          {
                            OFFSET -0.000999563 -3.39989 -0.000605501
                            CHANNELS 6 Xposition Yposition Zposition Zrotation Xrotation Yrotation
                            End Site
                            {
                              OFFSET -0.0019121 -2.59983 0.00170635
                            }
                          }
                        }
                      }
                    }
                    JOINT LeftHandPinky
                    {
                      OFFSET -0.750052 -1.74955 -1.84924
                      CHANNELS 6 Xposition Yposition Zposition Zrotation Xrotation Yrotation
                      JOINT LeftHandPinky1
                      {
                        OFFSET -0.0011983 -7.14432 -0.997247
                        CHANNELS 6 Xposition Yposition Zposition Zrotation Xrotation Yrotation
                        JOINT LeftHandPinky2
                        {
                          OFFSET 0.00293088 -2.99877 -0.00294065
                          CHANNELS 6 Xposition Yposition Zposition Zrotation Xrotation Yrotation
                          JOINT LeftHandPinky3
                          {
                            OFFSET 0.000180485 -2.34979 -0.000374168
                            CHANNELS 6 Xposition Yposition Zposition Zrotation Xrotation Yrotation
                            End Site
                            {
                              OFFSET 0.00135306 -2.09983 0.00185357
                            }
                          }
                        }
                      }
                    }
                  }
                }
              }
            }
          }
          JOINT RightShoulder
          {
            OFFSET -4.99954 17.0001 -7.82739e-05
            CHANNELS 6 Xposition Yposition Zposition Zrotation Xrotation Yrotation
            JOINT RightShoulder2
            {
              OFFSET -6.45 0 0
              CHANNELS 6 Xposition Yposition Zposition Zrotation Xrotation Yrotation
              JOINT RightArm
              {
                OFFSET -6.44998 -2.38733e-05 2.75407e-05
                CHANNELS 6 Xposition Yposition Zposition Zrotation Xrotation Yrotation
                JOINT RightForeArm
                {
                  OFFSET -0.000441517 -32.4059 -2.00398
                  CHANNELS 6 Xposition Yposition Zposition Zrotation Xrotation Yrotation
                  JOINT RightHand
                  {
                    OFFSET 0.00016839 -25.6497 1.9998
                    CHANNELS 6 Xposition Yposition Zposition Zrotation Xrotation Yrotation
                    JOINT RightHandThumb1
                    {
                      OFFSET 0.495748 -1.49644 2.65606
                      CHANNELS 6 Xposition Yposition Zposition Zrotation Xrotation Yrotation
                      JOINT RightHandThumb2
                      {
                        OFFSET -0.00241484 -3.80442 3.69032
                        CHANNELS 6 Xposition Yposition Zposition Zrotation Xrotation Yrotation
                        JOINT RightHandThumb3
                        {
                          OFFSET -0.00229388 -3.00792 2.69745
                          CHANNELS 6 Xposition Yposition Zposition Zrotation Xrotation Yrotation
                          End Site
                          {
                            OFFSET 0.00232542 -2.30295 1.79826
                          }
                        }
                      }
                    }
                    JOINT RightHandIndex
                    {
                      OFFSET 7.3962e-05 -1.89798 1.60043
                      CHANNELS 6 Xposition Yposition Zposition Zrotation Xrotation Yrotation
                      JOINT RightHandIndex1
                      {
                        OFFSET 2.54623e-05 -8.3 1.90004
                        CHANNELS 6 Xposition Yposition Zposition Zrotation Xrotation Yrotation
                        JOINT RightHandIndex2
                        {
                          OFFSET 0.00300161 -4.50728 0.00655644
                          CHANNELS 6 Xposition Yposition Zposition Zrotation Xrotation Yrotation
                          JOINT RightHandIndex3
                          {
                            OFFSET -0.00102097 -3.40104 2.28335e-05
                            CHANNELS 6 Xposition Yposition Zposition Zrotation Xrotation Yrotation
                            End Site
                            {
                              OFFSET -0.00114105 -2.59974 -0.000175478
                            }
                          }
                        }
                      }
                    }
                    JOINT RightHandMiddle
                    {
                      OFFSET 0.249328 -2.20142 0.400356
                      CHANNELS 6 Xposition Yposition Zposition Zrotation Xrotation Yrotation
                      JOINT RightHandMiddle1
                      {
                        OFFSET -0.00306998 -8.29809 1.00365
                        CHANNELS 6 Xposition Yposition Zposition Zrotation Xrotation Yrotation
                        JOINT RightHandMiddle2
                        {
                          OFFSET 0.00108882 -4.65059 -0.000594471
                          CHANNELS 6 Xposition Yposition Zposition Zrotation Xrotation Yrotation
                          JOINT RightHandMiddle3
                          {
                            OFFSET 0.00158568 -3.303 -0.000447153
                            CHANNELS 6 Xposition Yposition Zposition Zrotation Xrotation Yrotation
                            End Site
                            {
                              OFFSET 0.00918472 -2.69565 -0.00184977
                            }
                          }
                        }
                      }
                    }
                    JOINT RightHandRing
                    {
                      OFFSET 0.498539 -2.14985 -0.79868
                      CHANNELS 6 Xposition Yposition Zposition Zrotation Xrotation Yrotation
                      JOINT RightHandRing1
                      {
                        OFFSET 0.00039289 -7.74897 -0.200068
                        CHANNELS 6 Xposition Yposition Zposition Zrotation Xrotation Yrotation
                        JOINT RightHandRing2
                        {
                          OFFSET 0.000849851 -3.79961 -0.000320161
                          CHANNELS 6 Xposition Yposition Zposition Zrotation Xrotation Yrotation
                          JOINT RightHandRing3
                          {
                            OFFSET -0.00132311 -3.39621 0.00116506
                            CHANNELS 6 Xposition Yposition Zposition Zrotation Xrotation Yrotation
                            End Site
                            {
                              OFFSET 0.00565121 -2.59056 0.00289279
                            }
                          }
                        }
                      }
                    }
                    JOINT RightHandPinky
                    {
                      OFFSET 0.749555 -1.75058 -1.85034
                      CHANNELS 6 Xposition Yposition Zposition Zrotation Xrotation Yrotation
                      JOINT RightHandPinky1
                      {
                        OFFSET 0.000289154 -7.15081 -1.00052
                        CHANNELS 6 Xposition Yposition Zposition Zrotation Xrotation Yrotation
                        JOINT RightHandPinky2
                        {
                          OFFSET 0.00035063 -2.99979 -0.000410689
                          CHANNELS 6 Xposition Yposition Zposition Zrotation Xrotation Yrotation
                          JOINT RightHandPinky3
                          {
                            OFFSET -0.000637021 -2.34855 0.000334291
                            CHANNELS 6 Xposition Yposition Zposition Zrotation Xrotation Yrotation
                            End Site
                            {
                              OFFSET -0.00023609 -2.10026 -0.000275896
                            }
                          }
                        }
                      }
                    }
                  }
                }
              }
            }
          }
        }
      }
    }
  }
  JOINT LeftUpLeg
  {
    OFFSET 8.00001 0 1.10334e-05
    CHANNELS 6 Xposition Yposition Zposition Zrotation Xrotation Yrotation
    JOINT LeftLeg
    {
      OFFSET 8.07015e-05 -45.0001 -0.999819
      CHANNELS 6 Xposition Yposition Zposition Zrotation Xrotation Yrotation
      JOINT LeftFoot
      {
        OFFSET -0.000297341 -40.9998 -2.00019
        CHANNELS 6 Xposition Yposition Zposition Zrotation Xrotation Yrotation
        JOINT LeftToeBase
        {
          OFFSET 0 -7.49994 12.5
          CHANNELS 6 Xposition Yposition Zposition Zrotation Xrotation Yrotation
          JOINT LeftFootToe
          {
            OFFSET 0 0 4
            CHANNELS 6 Xposition Yposition Zposition Zrotation Xrotation Yrotation
            End Site
            {
              OFFSET 0 0 0
            }
          }
        }
      }
    }
  }
  JOINT RightUpLeg
  {
    OFFSET -8.00001 0 -1.10334e-05
    CHANNELS 6 Xposition Yposition Zposition Zrotation Xrotation Yrotation
    JOINT RightLeg
    {
      OFFSET -0.000214439 -45.0001 -1.00035
      CHANNELS 6 Xposition Yposition Zposition Zrotation Xrotation Yrotation
      JOINT RightFoot
      {
        OFFSET -8.10346e-05 -41.0001 -1.99988
        CHANNELS 6 Xposition Yposition Zposition Zrotation Xrotation Yrotation
        JOINT RightToeBase
        {
          OFFSET 0.000543581 -7.5 12.5003
          CHANNELS 6 Xposition Yposition Zposition Zrotation Xrotation Yrotation
          JOINT RightFootToe
          {
            OFFSET 0 0 4
            CHANNELS 6 Xposition Yposition Zposition Zrotation Xrotation Yrotation
            End Site
            {
              OFFSET 0 0 0
            }
          }
        }
      }
    }
  }
}
MOTION
Frames:	3
Frame Time:	0.0111111
-541.889 91.3815 1312.21 1.90585 5.73117 -109.819 -2.27374e-13 8 1.13687e-13 7.26116 2.0475 7.41443 -2.27374e-13 8 0 -0.00933334 1.75392 2.64471 0 8 1.7053e-13 0.00540743 0.877878 1.32839 2.27374e-13 8 -5.68434e-14 0.0137852 0.878643 1.32941 -2.27374e-13 17 5.68434e-14 1.61134 3.76318 7.21689 2.27374e-13 10.8 0 -0.786064 -5.17563 17.0292 5 17 5.68434e-14 2.32361 4.07308 -0.77633 6.45 0 -5.68434e-14 -0.698296 -0.412033 0.438459 6.45 -8.52651e-14 0 20.9727 -25.5509 47.1758 0 -32.4 -2 -74.5297 -9.98738 -45.5783 -2.27374e-13 -25.65 2 15.5226 13.3874 20.3293 -0.5 -1.5 2.65 -21.245 -18.9103 2.69733 -2.27374e-13 -3.8 3.7 8.67375 18.0147 4.08405 0 -3 2.7 -0.00495123 0.00621174 -0.0101011 4.54747e-13 -1.9 1.6 4.47077e-06 1.30644e-07 2.82451e-06 2.27374e-13 -8.3 1.9 -31.0793 28.8227 9.13418 2.27374e-13 -4.5 5.68434e-14 -30.0196 0.00321038 -0.000636835 0 -3.4 -1.7053e-13 -22.0582 -0.00807067 -0.00581998 -0.25 -2.2 0.4 4.47077e-06 1.30644e-07 2.82451e-06 0 -8.3 1 -35.1715 27.0428 10.4142 0 -4.65 5.68434e-14 -69.0052 -0.000851063 -0.0434632 1.13687e-13 -3.3 3.41061e-13 -90.0002 0.000672393 0.203058 -0.5 -2.15 -0.8 4.47077e-06 1.30644e-07 2.82451e-06 -2.27374e-13 -7.75 -0.2 -56.2163 22.0862 15.5276 5.68434e-14 -3.8 0 -0.288457 0.00284238 0.00291016 0 -3.4 -2.27374e-13 -32.3745 -0.00717479 -0.00467681 -0.75 -1.75 -1.85 4.47077e-06 1.30644e-07 2.82451e-06 -2.27374e-13 -7.15 -1 -60.2407 18.577 15.9159 -1.13687e-13 -3 0 -0.0909399 -0.00633162 0.0277711 5.68434e-14 -2.35 5.68434e-14 0.00478831 -0.0316193 0.256016 -5 17 5.68434e-14 6.11875 7.41019 0.961654 -6.45 -5.68434e-14 -2.84217e-13 -0.666524 -0.282379 -2.7282 -6.45 0 -1.7053e-13 -54.4654 7.23913 -1.12554 -1.13687e-13 -32.4 -2 105.836 -44.9616 99.3099 0 -25.65 2 -32.1263 10.6346 33.747 0.5 -1.5 2.65 161.04 80.8052 18.6392 -1.13687e-13 -3.8 3.7 -19.2479 39.4621 0.76703 0 -3 2.7 0.0199919 34.3065 0.0185641 5.68434e-14 -1.9 1.6 1.26867e-05 5.5984e-06 -7.71522e-06 5.68434e-14 -8.3 1.9 0.721284 2.36584 -0.0169627 -5.68434e-14 -4.5 0 8.25181 1.66939 -0.0051 3.97904e-13 -3.4 -2.27374e-13 7.68831 -0.0219798 0.0156678 0.25 -2.2 0.4 1.26867e-05 5.5984e-06 -7.71522e-06 -5.68434e-14 -8.3 1 2.07944 8.47716 -0.237882 -5.68434e-14 -4.65 0 37.5954 19.7205 1.48707 -5.68434e-14 -3.3 -2.27374e-13 31.8013 -0.00624843 0.0330362 0.5 -2.15 -0.8 1.26867e-05 5.5984e-06 -7.71522e-06 5.68434e-14 -7.75 -0.2 14.6384 11.5906 -1.90567 2.84217e-13 -3.8 2.27374e-13 23.7902 32.5001 9.9469 2.27374e-13 -3.4 -2.27374e-13 39.5095 -0.0337412 0.0224571 0.75 -1.75 -1.85 1.26867e-05 5.5984e-06 -7.71522e-06 5.68434e-14 -7.15 -1 29.1707 11.4706 -4.27455 0 -3 0 17.4295 11.3526 0.696878 1.13687e-13 -2.35 0 18.6869 -0.033553 0.0750773 8 -2.84217e-14 1.13687e-13 21.5654 -24.3617 17.8129 2.27374e-13 -45 -1 -1.52847 0.363902 6.6973 0 -41 -2 -0.628872 22.2955 5.91987 -2.27374e-13 -7.5 12.5 -0.000998719 0.0055374 0.174739 0 -2.84217e-14 4 2.43397 -7.42088 2.19575 -8 -2.84217e-14 -1.13687e-13 4.75282 -2.18016 7.85109 -2.27374e-13 -45 -1 -2.36193 -1.157 -6.66098 0 -41 -2 6.31694 4.71324 -25.1844 0 -7.5 12.5 -0.00215332 -0.00107983 0.0293055 0 0 4 1.20192 0.048167 29.5314 
-541.895 91.3819 1312.21 1.9046 5.7309 -109.81 -2.27374e-13 8 1.13687e-13 7.26811 2.04776 7.41314 -2.27374e-13 8 -1.13687e-13 -0.00908233 1.75469 2.64475 0 8 1.13687e-13 0.0054949 0.878093 1.32842 0 8 1.13687e-13 0.0137175 0.878579 1.3292 -2.27374e-13 17 0 1.58869 3.73758 7.219 2.27374e-13 10.8 1.13687e-13 -0.849372 -5.23754 17.032 5 17 1.13687e-13 2.3298 4.06149 -0.798568 6.45 -2.84217e-14 0 -0.696246 -0.412194 0.438955 6.45 -5.68434e-14 -5.68434e-14 20.9999 -25.6151 47.1325 1.13687e-13 -32.4 -2 -74.6487 -10.0311 -45.7008 2.27374e-13 -25.65 2 16.2779 13.3995 20.25 -0.5 -1.5 2.65 -21.5074 -18.9204 2.65792 0 -3.8 3.7 8.63979 17.9525 4.08088 0 -3 2.7 -0.00487205 -0.00842805 -0.00958073 2.27374e-13 -1.9 1.6 4.47077e-06 1.30644e-07 2.82451e-06 0 -8.3 1.9 -31.6906 28.9028 9.34599 2.27374e-13 -4.5 -1.7053e-13 -31.1552 0.00308766 0.00121477 0 -3.4 0 -22.7411 -0.00830711 -0.00527354 -0.25 -2.2 0.4 4.47077e-06 1.30644e-07 2.82451e-06 2.27374e-13 -8.3 1 -35.5763 27.2121 10.6135 0 -4.65 5.68434e-14 -70.2517 -0.000957679 -0.0431005 -1.13687e-13 -3.3 1.7053e-13 -90.0002 0.000672393 0.203103 -0.5 -2.15 -0.8 4.47077e-06 1.30644e-07 2.82451e-06 -4.54747e-13 -7.75 -0.2 -56.8623 22.2608 15.8876 -5.68434e-14 -3.8 5.68434e-14 -0.288457 0.00261843 0.00291016 0 -3.4 -2.27374e-13 -33.5426 -0.00720344 -0.0046666 -0.75 -1.75 -1.85 4.47077e-06 1.30644e-07 2.82451e-06 -2.27374e-13 -7.15 -1 -61.0009 18.6378 16.2629 -1.13687e-13 -3 1.13687e-13 -0.0753528 -0.00699873 0.0277505 0 -2.35 0 0.0197849 -0.0316303 0.256473 -5 17 -5.68434e-14 6.11678 7.41172 0.975885 -6.45 -2.84217e-14 -1.7053e-13 -0.666449 -0.282038 -2.72797 -6.45 0 -1.13687e-13 -54.4347 7.06878 -1.20765 -1.13687e-13 -32.4 -2 106.098 -45.0085 99.6575 1.7053e-13 -25.65 2 -32.5587 10.5863 34.2826 0.5 -1.5 2.65 141.883 83.8396 38.7447 -1.13687e-13 -3.8 3.7 -14.6904 34.2174 -0.992474 1.13687e-13 -3 2.7 0.0209856 32.5738 0.0624659 5.68434e-14 -1.9 1.6 1.26867e-05 5.5984e-06 -7.71522e-06 5.68434e-14 -8.3 1.9 0.596743 2.22991 -0.0125846 5.68434e-14 -4.5 2.27374e-13 8.68225 1.76265 -0.00349226 4.54747e-13 -3.4 0 8.04799 -0.0201647 0.0156334 0.25 -2.2 0.4 1.26867e-05 5.5984e-06 -7.71522e-06 0 -8.3 1 1.81603 8.38858 -0.214049 -5.68434e-14 -4.65 -2.27374e-13 38.0019 20.0793 1.54259 0 -3.3 0 32.172 -0.00624965 0.0307154 0.5 -2.15 -0.8 1.26867e-05 5.5984e-06 -7.71522e-06 1.13687e-13 -7.75 -0.2 14.3769 11.578 -1.86889 2.27374e-13 -3.8 -2.27374e-13 23.7871 32.6928 10.0974 5.68434e-14 -3.4 0 39.7273 -0.0333302 0.0224504 0.75 -1.75 -1.85 1.26867e-05 5.5984e-06 -7.71522e-06 5.68434e-14 -7.15 -1 28.9345 11.5591 -4.25778 0 -3 0 17.5879 11.4718 0.71193 -5.68434e-14 -2.35 -2.27374e-13 18.832 -0.0337762 0.07304 8 0 5.68434e-14 21.5626 -24.3567 17.8129 0 -45 -1 -1.53752 0.355576 6.69699 0 -41 -2 -0.619212 22.2955 5.90904 -4.54747e-13 -7.5 12.5 -0.000998701 0.0055374 0.174553 2.27374e-13 0 4 2.43386 -7.42181 2.19573 -8 0 0 4.7503 -2.17743 7.86403 0 -45 -1 -2.36228 -1.15744 -6.66102 2.27374e-13 -41 -2 6.32286 4.71273 -25.1981 0 -7.5 12.5 -0.00215332 -0.00107983 0.02932 0 0 4 1.19597 0.0534261 29.5314 
-541.901 91.3822 1312.21 1.90344 5.73057 -109.803 -2.27374e-13 8 0 7.27532 2.04815 7.4126 0 8 -1.7053e-13 -0.00880509 1.75543 2.64483 0 8 1.7053e-13 0.00560159 0.878321 1.32847 0 8 2.27374e-13 0.0136513 0.878506 1.32899 0 17 -5.68434e-14 1.56566 3.70678 7.21989 2.27374e-13 10.8 1.13687e-13 -0.91277 -5.31078 17.0318 5 17 1.13687e-13 2.33668 4.04983 -0.822325 6.45 1.42109e-14 5.68434e-14 -0.693926 -0.412366 0.43941 6.45 -9.9476e-14 -1.13687e-13 21.0286 -25.6865 47.0989 0 -32.4 -2 -74.7657 -10.0762 -45.8189 0 -25.65 2 16.996 13.4439 20.1575 -0.5 -1.5 2.65 -21.7358 -18.9265 2.64611 -2.27374e-13 -3.8 3.7 8.59725 17.8749 4.07689 2.27374e-13 -3 2.7 -0.00478544 -0.00634115 -0.00905298 2.27374e-13 -1.9 1.6 4.47077e-06 1.30644e-07 2.82451e-06 0 -8.3 1.9 -32.2454 28.9966 9.54789 1.13687e-13 -4.5 1.13687e-13 -32.2421 0.0029685 0.00337477 0 -3.4 1.13687e-13 -23.3899 -0.0085489 -0.00474869 -0.25 -2.2 0.4 4.47077e-06 1.30644e-07 2.82451e-06 2.27374e-13 -8.3 1 -35.8791 27.39 10.7871 1.13687e-13 -4.65 1.13687e-13 -71.5777 -0.0010643 -0.042661 -1.13687e-13 -3.3 1.7053e-13 -90.0002 0.000672393 0.203146 -0.5 -2.15 -0.8 4.47077e-06 1.30644e-07 2.82451e-06 0 -7.75 -0.2 -57.452 22.4488 16.2413 0 -3.8 0 -0.288457 0.00239648 0.00291016 5.68434e-14 -3.4 -2.84217e-13 -34.8048 -0.00723211 -0.0046473 -0.75 -1.75 -1.85 4.47077e-06 1.30644e-07 2.82451e-06 -4.54747e-13 -7.15 -1 -61.7019 18.7102 16.601 -5.68434e-14 -3 1.13687e-13 -0.0765191 -0.00773447 0.0277046 0 -2.35 -5.68434e-14 0.0184191 -0.0316389 0.256926 -5 17 0 6.11471 7.41311 0.990112 -6.45 -2.84217e-14 -1.13687e-13 -0.666371 -0.281763 -2.72694 -6.45 2.84217e-14 -5.68434e-14 -54.4016 6.90645 -1.29086 0 -32.4 -2 106.356 -45.0468 99.9966 -5.68434e-14 -25.65 2 -32.9709 10.5175 34.8269 0.5 -1.5 2.65 95.4783 85.1853 86.1078 -1.13687e-13 -3.8 3.7 -10.3042 28.1115 -2.43212 0 -3 2.7 0.0260734 30.5847 0.100864 1.13687e-13 -1.9 1.6 1.26867e-05 5.5984e-06 -7.71522e-06 5.68434e-14 -8.3 1.9 0.507353 2.09766 -0.00938147 5.68434e-14 -4.5 2.27374e-13 9.12475 1.85893 -0.00180373 4.54747e-13 -3.4 2.27374e-13 8.41234 -0.0183093 0.0156013 0.25 -2.2 0.4 1.26867e-05 5.5984e-06 -7.71522e-06 -1.7053e-13 -8.3 1 1.59988 8.31125 -0.194271 -5.68434e-14 -4.65 0 38.384 20.4222 1.59643 5.68434e-14 -3.3 0 32.5241 -0.00625094 0.0283346 0.5 -2.15 -0.8 1.26867e-05 5.5984e-06 -7.71522e-06 5.68434e-14 -7.75 -0.2 14.1716 11.5681 -1.83979 1.7053e-13 -3.8 -2.27374e-13 23.782 32.8816 10.2466 1.7053e-13 -3.4 0 39.9414 -0.0329248 0.0224384 0.75 -1.75 -1.85 1.26867e-05 5.5984e-06 -7.71522e-06 5.68434e-14 -7.15 -1 28.7344 11.6304 -4.24192 0 -3 0 17.7771 11.6146 0.73023 -1.7053e-13 -2.35 2.27374e-13 19.0051 -0.0339995 0.0709717 8 -2.84217e-14 1.7053e-13 21.5605 -24.3522 17.8122 0 -45 -1 -1.54593 0.347828 6.69676 -2.27374e-13 -41 -2 -0.610571 22.2947 5.90005 -4.54747e-13 -7.5 12.5 -0.000998683 0.0055374 0.174366 -2.27374e-13 1.42109e-14 4 2.43378 -7.42276 2.19571 -8 0 0 4.74825 -2.1742 7.87618 0 -45 -1 -2.36317 -1.15895 -6.66106 -2.27374e-13 -41 -2 6.32923 4.71307 -25.21 -2.27374e-13 -7.5 12.5 -0.00215332 -0.00107983 0.0293346 0 -1.42109e-14 4 1.19075 0.0584778 29.5314 
